<?xml version="1.0" encoding="iso-8859-1"?>
<!-- Generator: Adobe Illustrator 19.0.0, SVG Export Plug-In . SVG Version: 6.00 Build 0)  -->
<svg version="1.1" id="Layer_1" xmlns="http://www.w3.org/2000/svg" xmlns:xlink="http://www.w3.org/1999/xlink" x="0px" y="0px"
	 viewBox="0 0 367.666 367.666" style="enable-background:new 0 0 367.666 367.666;" xml:space="preserve">
<g>
	<g>
		<path style="fill:#005CB9;" d="M260.649,315.553c0,13.75-11.25,25-25,25H32.5c-13.75,0-25-11.25-25-25V44.613
			c0-13.75,11.25-25,25-25h203.149c13.75,0,25,11.25,25,25V315.553z"/>
		<rect x="64.976" y="81.186" style="fill:#FFFFFF;" width="152.199" height="30.1"/>
	</g>
	<g>
		<path style="fill:#C3C6C8;" d="M344.055,261.787H138.474c-21.281,0-38.533,17.253-38.533,38.533
			c0,21.281,17.252,38.533,38.533,38.533h205.581V261.787z"/>
		<path style="fill:#FEE050;" d="M350.968,348.053H138.474c-26.32,0-47.732-21.412-47.732-47.732
			c0-26.319,21.412-47.732,47.732-47.732h212.494c5.08,0,9.198,4.118,9.198,9.199s-4.118,9.199-9.198,9.199H138.474
			c-16.175,0-29.335,13.159-29.335,29.334s13.16,29.335,29.335,29.335h212.494c5.08,0,9.198,4.118,9.198,9.198
			C360.166,343.935,356.048,348.053,350.968,348.053z"/>
	</g>
	<path style="fill:#071C2C;" d="M217.175,118.785c4.143,0,7.5-3.357,7.5-7.5v-30.1c0-4.143-3.357-7.5-7.5-7.5H64.976
		c-4.143,0-7.5,3.357-7.5,7.5v30.1c0,4.143,3.357,7.5,7.5,7.5H217.175z M72.476,88.686h137.199v15.1H72.476V88.686z
		 M351.555,322.185v-43.729c8.935-0.313,16.111-7.659,16.111-16.669c0-9.208-7.491-16.699-16.698-16.699H268.15V44.613
		c0-17.921-14.579-32.5-32.5-32.5H32.5c-17.921,0-32.5,14.579-32.5,32.5v270.939c0,17.921,14.579,32.5,32.5,32.5h78.237
		c8.157,4.759,17.63,7.5,27.736,7.5h212.494c9.207,0,16.698-7.491,16.698-16.699C367.666,329.845,360.489,322.498,351.555,322.185z
		 M32.5,333.053c-9.649,0-17.5-7.851-17.5-17.5V44.613c0-9.649,7.851-17.5,17.5-17.5h203.149c9.649,0,17.5,7.851,17.5,17.5v200.475
		h-53.951v-10.962H82.952v15h34.826c-20.229,8.207-34.537,28.056-34.537,51.194c0,12.243,4.011,23.565,10.778,32.732H32.5V333.053z
		 M350.968,340.553H138.474c-22.185,0-40.232-18.048-40.232-40.232s18.048-40.232,40.232-40.232h212.494
		c0.937,0,1.698,0.763,1.698,1.699s-0.762,1.699-1.698,1.699H138.474c-20.311,0-36.835,16.523-36.835,36.834
		s16.524,36.835,36.835,36.835h212.494c0.937,0,1.698,0.762,1.698,1.698S351.904,340.553,350.968,340.553z M336.555,298.333v3.975
		H138.216v15h198.339v4.848H138.474c-12.04,0-21.835-9.795-21.835-21.835c0-12.039,9.795-21.834,21.835-21.834h198.081v4.847
		H138.216v15L336.555,298.333L336.555,298.333z M217.175,204.792H64.976v15h152.199V204.792z"/>
</g>
<g>
</g>
<g>
</g>
<g>
</g>
<g>
</g>
<g>
</g>
<g>
</g>
<g>
</g>
<g>
</g>
<g>
</g>
<g>
</g>
<g>
</g>
<g>
</g>
<g>
</g>
<g>
</g>
<g>
</g>
</svg>
